<svg width="14" height="11" viewBox="0 0 14 11" fill="none" xmlns="http://www.w3.org/2000/svg">
<path fill-rule="evenodd" clip-rule="evenodd" d="M13.6801 4.93898C13.7913 5.05031 13.8538 5.20122 13.8538 5.35856C13.8538 5.51591 13.7913 5.66682 13.6801 5.77814L8.93012 10.5281C8.87576 10.5865 8.81021 10.6333 8.73738 10.6657C8.66454 10.6982 8.58592 10.7156 8.5062 10.717C8.42647 10.7184 8.34728 10.7038 8.27335 10.6739C8.19942 10.644 8.13226 10.5996 8.07588 10.5432C8.0195 10.4868 7.97505 10.4197 7.94519 10.3457C7.91532 10.2718 7.90066 10.1926 7.90206 10.1129C7.90347 10.0332 7.92092 9.95455 7.95337 9.88172C7.98582 9.80888 8.03261 9.74333 8.09095 9.68898L11.8276 5.95231L0.593866 5.95231C0.436394 5.95231 0.285371 5.88975 0.174021 5.7784C0.0626707 5.66706 0.000116348 5.51603 0.000116348 5.35856C0.000116348 5.20109 0.0626707 5.05007 0.174021 4.93872C0.285371 4.82737 0.436394 4.76481 0.593866 4.76481L11.8276 4.76481L8.09095 1.02814C8.03261 0.973786 7.98582 0.908236 7.95337 0.835403C7.92092 0.76257 7.90347 0.683947 7.90206 0.604224C7.90066 0.524501 7.91532 0.445311 7.94519 0.371379C7.97505 0.297447 8.0195 0.230286 8.07588 0.173905C8.13226 0.117523 8.19942 0.0730756 8.27335 0.0432132C8.34728 0.0133507 8.42647 -0.00131445 8.5062 9.21716e-05C8.58592 0.0014988 8.66454 0.0189483 8.73738 0.0514003C8.81021 0.0838523 8.87576 0.130642 8.93012 0.188977L13.6801 4.93898Z" fill="#A195AD"/>
</svg>
